# xmcd
#
# Track frame offsets:
#	150
#	11761
#	20605
#	30545
#	41971
#	54761
#	64586
#	82653
#	90469
#	111825
#	120319
#	133218
#	144635
#	154566
#
# Disc length: 2226 seconds
#
# Revision: 1
# Processed by: cddbd v1.5.2PL0 Copyright (c) Steve Scherf et al.
# Submitted via: EasyCDDAExtractor 16.0.6.1
#
DISCID=aa08b00e
DTITLE=Varios - C-088 Exitos del Country Vo.2
DYEAR=1900
DGENRE=Country
TTITLE0=Twitty, White Harvey - To See An Angel Cry
TTITLE1=H. Williams - Jambalaya
TTITLE2=Cash - Pista sin título 3Rock island Line
TTITLE3=Blakman, Stewardt - Just Of Reach
TTITLE4=Payne - I Love You Because
TTITLE5=Mills, Friend - Loversick Blues
TTITLE6=Nelson - Garden Party
TTITLE7=H. Williams - Hey Good Locking
TTITLE8=V. McCoy - Baby I'm Yours
TTITLE9=L.Brown - Abilene
TTITLE10=Haggard - Working Man Blues
TTITLE11=H. Howard - Heartaches By The Number
TTITLE12=Robertson, Blair - Please help Me I'm Falling
TTITLE13=W. Nelson - I Can't Find The Time
EXTD=
EXTT0=
EXTT1=
EXTT2=
EXTT3=
EXTT4=
EXTT5=
EXTT6=
EXTT7=
EXTT8=
EXTT9=
EXTT10=
EXTT11=
EXTT12=
EXTT13=
PLAYORDER=
